<svg width="147" height="160" viewBox="0 0 147 160" fill="none" xmlns="http://www.w3.org/2000/svg">
    <path d="M67.8498 4.37665C66.5165 8.64332 65.8498 9.17665 61.7165 9.17665C57.4498 9.17665 57.1832 9.44332 57.1832 13.71C57.1832 17.71 57.8498 18.7767 62.5165 21.31C65.4498 23.0433 67.8498 25.31 67.8498 26.3766C67.8498 27.4433 65.0498 31.31 61.5832 34.7766C55.9832 40.3766 55.3165 41.8433 54.7832 48.51C54.5165 52.51 53.9832 55.8433 53.5832 55.8433C53.3165 55.8433 51.3165 54.6433 49.3165 53.0433C40.6498 46.6433 24.9165 45.71 14.5165 51.1766C9.18315 53.9766 2.91648 61.71 1.31648 67.4433C-1.75018 78.3766 0.116485 84.7767 11.4498 102.11C19.8498 114.777 22.1165 120.91 23.3165 134.91C24.6498 149.577 27.4498 152.91 41.7165 156.643C58.1165 161.043 96.3832 160.11 110.65 155.177C120.25 151.71 122.116 149.043 123.183 137.31C124.65 122.377 127.716 113.843 136.916 99.9767C145.716 86.7767 147.183 82.11 146.25 71.71C144.25 51.5766 121.05 41.31 101.183 51.5766L93.4498 55.5766L92.5165 48.2433C91.7165 41.8433 90.9165 40.2433 85.7165 35.31C78.5165 28.3766 78.2498 25.0433 84.5165 21.1767C88.3832 18.7767 89.1832 17.4433 89.1832 13.71C89.1832 9.44332 88.9165 9.17665 84.6498 9.17665C80.7832 9.17665 80.1165 8.64332 79.0498 4.77665C77.9832 1.30999 77.0498 0.376654 73.5832 0.109987C69.8498 -0.290013 69.3165 0.243321 67.8498 4.37665ZM41.8498 58.51C54.9165 64.7766 64.1165 77.1766 65.8498 90.51C67.3165 101.177 67.7165 102.243 71.1832 103.043C76.6498 104.377 79.8498 101.843 79.8498 95.9767C79.8498 76.91 99.1832 55.8433 116.516 55.8433C129.316 55.8433 137.183 62.91 137.183 74.3766C137.183 84.11 126.383 102.243 116.516 109.043C112.65 111.577 110.25 112.11 102.383 112.11C97.1832 111.977 88.5165 111.31 83.0498 110.51C76.1165 109.443 70.3832 109.443 63.4498 110.377C53.4498 111.843 45.0498 112.377 37.1832 111.977C33.3165 111.843 31.1832 110.377 24.5165 103.443C10.6498 88.91 5.84982 74.11 11.7165 64.3766C16.7832 56.11 31.0498 53.31 41.8498 58.51ZM103.716 133.71C106.25 134.51 108.516 135.843 108.783 136.777C109.983 140.243 104.516 140.91 88.7832 139.577C78.1165 138.643 68.2498 138.643 57.5832 139.577C42.3832 140.91 37.1832 140.243 37.1832 137.043C37.1832 134.643 44.3832 132.91 57.8498 131.977C73.8498 130.777 97.4498 131.71 103.716 133.71Z" fill="black"/>
</svg>
